<svg xmlns="http://www.w3.org/2000/svg" xmlns:xlink="http://www.w3.org/1999/xlink" width="315" zoomAndPan="magnify" viewBox="0 0 236.25 319.500004" height="426" preserveAspectRatio="xMidYMid meet" version="1.0"><defs><clipPath id="db0cead494"><path d="M 7 7 L 229 7 L 229 229 L 7 229 Z M 7 7 " clip-rule="nonzero"/></clipPath><clipPath id="b73f58df43"><path d="M 78.414062 0.253906 L 235.253906 157.09375 L 156.835938 235.511719 L -0.00390625 78.671875 Z M 78.414062 0.253906 " clip-rule="nonzero"/></clipPath><clipPath id="782dd0bd30"><path d="M 90.574219 12.414062 L 223.09375 144.933594 C 229.808594 151.648438 229.808594 162.535156 223.09375 169.25 L 168.992188 223.351562 C 162.277344 230.066406 151.390625 230.066406 144.675781 223.351562 L 12.15625 90.832031 C 5.441406 84.117188 5.441406 73.230469 12.15625 66.515625 L 66.257812 12.414062 C 72.972656 5.699219 83.859375 5.699219 90.574219 12.414062 Z M 90.574219 12.414062 " clip-rule="nonzero"/></clipPath><clipPath id="04fc3b3b2c"><path d="M 0 0 L 222 0 L 222 222 L 0 222 Z M 0 0 " clip-rule="nonzero"/></clipPath><clipPath id="f6dd3da6cd"><path d="M 71.414062 -6.746094 L 228.253906 150.09375 L 149.835938 228.511719 L -7.003906 71.671875 Z M 71.414062 -6.746094 " clip-rule="nonzero"/></clipPath><clipPath id="017f02f095"><path d="M 83.574219 5.414062 L 216.09375 137.933594 C 222.808594 144.648438 222.808594 155.535156 216.09375 162.25 L 161.992188 216.351562 C 155.277344 223.066406 144.390625 223.066406 137.675781 216.351562 L 5.15625 83.832031 C -1.558594 77.117188 -1.558594 66.230469 5.15625 59.515625 L 59.257812 5.414062 C 65.972656 -1.300781 76.859375 -1.300781 83.574219 5.414062 Z M 83.574219 5.414062 " clip-rule="nonzero"/></clipPath><clipPath id="fbf84a937a"><rect x="0" width="222" y="0" height="222"/></clipPath><clipPath id="52b68533f9"><path d="M 7 84 L 229 84 L 229 306 L 7 306 Z M 7 84 " clip-rule="nonzero"/></clipPath><clipPath id="98c50a8c7f"><path d="M 0.00390625 234.589844 L 156.839844 77.753906 L 235.257812 156.171875 L 78.421875 313.007812 Z M 0.00390625 234.589844 " clip-rule="nonzero"/></clipPath><clipPath id="2921729140"><path d="M 12.160156 222.429688 L 144.679688 89.910156 C 151.394531 83.195312 162.28125 83.195312 168.996094 89.910156 L 223.097656 144.011719 C 229.8125 150.726562 229.8125 161.613281 223.097656 168.328125 L 90.578125 300.847656 C 83.863281 307.5625 72.976562 307.5625 66.261719 300.847656 L 12.160156 246.746094 C 5.445312 240.03125 5.445312 229.144531 12.160156 222.429688 Z M 12.160156 222.429688 " clip-rule="nonzero"/></clipPath><clipPath id="c64e618869"><path d="M 0 0 L 222 0 L 222 222 L 0 222 Z M 0 0 " clip-rule="nonzero"/></clipPath><clipPath id="897082e818"><path d="M -6.996094 150.589844 L 149.839844 -6.246094 L 228.257812 72.171875 L 71.421875 229.007812 Z M -6.996094 150.589844 " clip-rule="nonzero"/></clipPath><clipPath id="32356ad297"><path d="M 5.160156 138.429688 L 137.679688 5.910156 C 144.394531 -0.804688 155.28125 -0.804688 161.996094 5.910156 L 216.097656 60.011719 C 222.8125 66.726562 222.8125 77.613281 216.097656 84.328125 L 83.578125 216.847656 C 76.863281 223.5625 65.976562 223.5625 59.261719 216.847656 L 5.160156 162.746094 C -1.554688 156.03125 -1.554688 145.144531 5.160156 138.429688 Z M 5.160156 138.429688 " clip-rule="nonzero"/></clipPath><clipPath id="75053b8033"><rect x="0" width="222" y="0" height="222"/></clipPath><clipPath id="39a6fdcba5"><path d="M 117.625 0.257812 L 228.523438 0.257812 L 228.523438 318.746094 L 117.625 318.746094 Z M 117.625 0.257812 " clip-rule="nonzero"/></clipPath><clipPath id="b60cd3777a"><path d="M 228.523438 17.449219 L 228.523438 301.5 C 228.523438 311 220.824219 318.695312 211.328125 318.695312 L 134.820312 318.695312 C 125.324219 318.695312 117.625 311 117.625 301.5 L 117.625 17.449219 C 117.625 7.953125 125.324219 0.253906 134.820312 0.253906 L 211.328125 0.253906 C 220.824219 0.253906 228.523438 7.953125 228.523438 17.449219 Z M 228.523438 17.449219 " clip-rule="nonzero"/></clipPath><clipPath id="92fe05fe24"><path d="M 0.625 0.257812 L 111.523438 0.257812 L 111.523438 318.746094 L 0.625 318.746094 Z M 0.625 0.257812 " clip-rule="nonzero"/></clipPath><clipPath id="8cd29541d8"><path d="M 111.523438 17.449219 L 111.523438 301.5 C 111.523438 311 103.824219 318.695312 94.328125 318.695312 L 17.820312 318.695312 C 8.324219 318.695312 0.625 311 0.625 301.5 L 0.625 17.449219 C 0.625 7.953125 8.324219 0.253906 17.820312 0.253906 L 94.328125 0.253906 C 103.824219 0.253906 111.523438 7.953125 111.523438 17.449219 Z M 111.523438 17.449219 " clip-rule="nonzero"/></clipPath><clipPath id="0a7fda727b"><rect x="0" width="112" y="0" height="319"/></clipPath></defs><g clip-path="url(#db0cead494)"><g clip-path="url(#b73f58df43)"><g clip-path="url(#782dd0bd30)"><g transform="matrix(1, 0, 0, 1, 7, 7)"><g clip-path="url(#fbf84a937a)"><g clip-path="url(#04fc3b3b2c)"><g clip-path="url(#f6dd3da6cd)"><g clip-path="url(#017f02f095)"><path fill="#4f39f0" d="M 71.414062 -6.746094 L 228.253906 150.09375 L 149.835938 228.511719 L -7.003906 71.671875 Z M 71.414062 -6.746094 " fill-opacity="1" fill-rule="nonzero"/></g></g></g></g></g></g></g></g><g clip-path="url(#52b68533f9)"><g clip-path="url(#98c50a8c7f)"><g clip-path="url(#2921729140)"><g transform="matrix(1, 0, 0, 1, 7, 84)"><g clip-path="url(#75053b8033)"><g clip-path="url(#c64e618869)"><g clip-path="url(#897082e818)"><g clip-path="url(#32356ad297)"><path fill="#4f39f0" d="M -6.996094 150.589844 L 149.839844 -6.246094 L 228.257812 72.171875 L 71.421875 229.007812 Z M -6.996094 150.589844 " fill-opacity="1" fill-rule="nonzero"/></g></g></g></g></g></g></g></g><g clip-path="url(#39a6fdcba5)"><g clip-path="url(#b60cd3777a)"><g transform="matrix(1, 0, 0, 1, 117, 0.000000000000050682)"><g clip-path="url(#0a7fda727b)"><g clip-path="url(#92fe05fe24)"><g clip-path="url(#8cd29541d8)"><path fill="#4f39f0" d="M 111.523438 0.253906 L 111.523438 318.660156 L 0.625 318.660156 L 0.625 0.253906 Z M 111.523438 0.253906 " fill-opacity="1" fill-rule="nonzero"/></g></g></g></g></g></g></svg>