<svg xmlns="http://www.w3.org/2000/svg" xmlns:xlink="http://www.w3.org/1999/xlink" width="2000" zoomAndPan="magnify" viewBox="0 0 1500 1499.999933" height="2000" preserveAspectRatio="xMidYMid meet" version="1.0"><defs><g/><clipPath id="e844efbf16"><rect x="0" width="1500" y="0" height="1500"/></clipPath><clipPath id="31aeaa794b"><path d="M 102.605469 325.230469 L 459.035156 325.230469 L 459.035156 681.660156 L 102.605469 681.660156 Z M 102.605469 325.230469 " clip-rule="nonzero"/></clipPath><clipPath id="22ad024917"><path d="M 280.820312 325.230469 L 334.84375 449.425781 L 459.035156 503.445312 L 334.84375 557.46875 L 280.820312 681.660156 L 226.800781 557.46875 L 102.605469 503.445312 L 226.800781 449.425781 Z M 280.820312 325.230469 " clip-rule="nonzero"/></clipPath><clipPath id="159f081b4f"><path d="M 0.605469 0.230469 L 357.035156 0.230469 L 357.035156 356.660156 L 0.605469 356.660156 Z M 0.605469 0.230469 " clip-rule="nonzero"/></clipPath><clipPath id="0e6b1a14f5"><path d="M 178.820312 0.230469 L 232.84375 124.425781 L 357.035156 178.445312 L 232.84375 232.46875 L 178.820312 356.660156 L 124.800781 232.46875 L 0.605469 178.445312 L 124.800781 124.425781 Z M 178.820312 0.230469 " clip-rule="nonzero"/></clipPath><clipPath id="13a043dd97"><rect x="0" width="358" y="0" height="357"/></clipPath><clipPath id="96cc0f976f"><path d="M 309.039062 201.910156 L 508.527344 201.910156 L 508.527344 401.394531 L 309.039062 401.394531 Z M 309.039062 201.910156 " clip-rule="nonzero"/></clipPath><clipPath id="5ab581576c"><path d="M 408.785156 201.910156 L 439.019531 271.417969 L 508.527344 301.652344 L 439.019531 331.886719 L 408.785156 401.394531 L 378.550781 331.886719 L 309.039062 301.652344 L 378.550781 271.417969 Z M 408.785156 201.910156 " clip-rule="nonzero"/></clipPath><clipPath id="b545bd2ec0"><path d="M 0.0390625 0.910156 L 199.527344 0.910156 L 199.527344 200.394531 L 0.0390625 200.394531 Z M 0.0390625 0.910156 " clip-rule="nonzero"/></clipPath><clipPath id="7325402f16"><path d="M 99.785156 0.910156 L 130.019531 70.417969 L 199.527344 100.652344 L 130.019531 130.886719 L 99.785156 200.394531 L 69.550781 130.886719 L 0.0390625 100.652344 L 69.550781 70.417969 Z M 99.785156 0.910156 " clip-rule="nonzero"/></clipPath><clipPath id="1e02ceb541"><rect x="0" width="200" y="0" height="201"/></clipPath></defs><g transform="matrix(1, 0, 0, 1, 0, 0.000000000000112861)"><g clip-path="url(#e844efbf16)"><g fill="#4f39f6" fill-opacity="1"><g transform="translate(-77.711194, 1382.938623)"><g><path d="M 955.875 -1308.03125 C 1115.582031 -1308.03125 1244.546875 -1260.117188 1342.765625 -1164.296875 C 1440.992188 -1068.472656 1490.109375 -926.328125 1490.109375 -737.859375 L 1490.109375 0 L 1116.390625 0 L 1116.390625 -680.375 C 1116.390625 -782.582031 1094.023438 -858.84375 1049.296875 -909.15625 C 1004.578125 -959.46875 939.894531 -984.625 855.25 -984.625 C 761.019531 -984.625 685.957031 -955.472656 630.0625 -897.171875 C 574.164062 -838.878906 546.21875 -752.238281 546.21875 -637.25 L 546.21875 0 L 172.484375 0 L 172.484375 -1288.875 L 529.4375 -1288.875 L 529.4375 -1137.9375 C 578.945312 -1192.238281 640.4375 -1234.160156 713.90625 -1263.703125 C 787.375 -1293.253906 868.03125 -1308.03125 955.875 -1308.03125 Z M 955.875 -1308.03125 "/></g></g></g></g></g><g clip-path="url(#31aeaa794b)"><g clip-path="url(#22ad024917)"><g transform="matrix(1, 0, 0, 1, 102, 325)"><g clip-path="url(#13a043dd97)"><g clip-path="url(#159f081b4f)"><g clip-path="url(#0e6b1a14f5)"><path fill="#ffffff" d="M 0.605469 0.230469 L 357.035156 0.230469 L 357.035156 356.660156 L 0.605469 356.660156 Z M 0.605469 0.230469 " fill-opacity="1" fill-rule="nonzero"/></g></g></g></g></g></g><g clip-path="url(#96cc0f976f)"><g clip-path="url(#5ab581576c)"><g transform="matrix(1, 0, 0, 1, 309, 201)"><g clip-path="url(#1e02ceb541)"><g clip-path="url(#b545bd2ec0)"><g clip-path="url(#7325402f16)"><path fill="#ffffff" d="M 0.0390625 0.910156 L 199.527344 0.910156 L 199.527344 200.394531 L 0.0390625 200.394531 Z M 0.0390625 0.910156 " fill-opacity="1" fill-rule="nonzero"/></g></g></g></g></g></g></svg>